<svg viewBox="0 0 200 60" xmlns="http://www.w3.org/2000/svg">
  <!-- Gradient definitions -->
  <defs>
    <linearGradient id="primaryGradient" x1="0%" y1="0%" x2="100%" y2="100%">
      <stop offset="0%" style="stop-color:#667eea;stop-opacity:1" />
      <stop offset="100%" style="stop-color:#764ba2;stop-opacity:1" />
    </linearGradient>
    <linearGradient id="secondaryGradient" x1="0%" y1="0%" x2="100%" y2="100%">
      <stop offset="0%" style="stop-color:#f093fb;stop-opacity:1" />
      <stop offset="100%" style="stop-color:#f5576c;stop-opacity:1" />
    </linearGradient>
    <filter id="glow">
      <feGaussianBlur stdDeviation="3" result="coloredBlur"/>
      <feMerge>
        <feMergeNode in="coloredBlur"/>
        <feMergeNode in="SourceGraphic"/>
      </feMerge>
    </filter>
  </defs>

  <!-- Logo icon representing image generation with overlaid text -->
  <g transform="translate(8, 8)">
    <!-- Background image representation -->
    <rect x="0" y="4" width="28" height="20" rx="3" fill="url(#primaryGradient)" opacity="0.3"/>
    <rect x="2" y="6" width="24" height="16" rx="2" fill="none" stroke="url(#primaryGradient)" stroke-width="2"/>

    <!-- Overlaid text fields -->
    <rect x="4" y="8" width="12" height="2" rx="1" fill="url(#secondaryGradient)"/>
    <rect x="4" y="11" width="8" height="2" rx="1" fill="url(#secondaryGradient)" opacity="0.7"/>
    <rect x="4" y="14" width="16" height="2" rx="1" fill="url(#secondaryGradient)" opacity="0.5"/>
    <rect x="4" y="17" width="6" height="2" rx="1" fill="url(#secondaryGradient)" opacity="0.3"/>

    <!-- Arrow showing transformation -->
    <path d="M 32 14 L 36 14 M 34 12 L 36 14 L 34 16" stroke="url(#primaryGradient)" stroke-width="2" fill="none"/>

    <!-- Generated image stack -->
    <rect x="40" y="2" width="8" height="10" rx="1" fill="url(#secondaryGradient)" opacity="0.3"/>
    <rect x="42" y="4" width="8" height="10" rx="1" fill="url(#secondaryGradient)" opacity="0.6"/>
    <rect x="44" y="6" width="8" height="10" rx="1" fill="url(#secondaryGradient)"/>
  </g>

  <!-- Logo text -->
  <text x="65" y="35" font-family="Arial, sans-serif" font-size="24" font-weight="bold" fill="url(#primaryGradient)">
    Midiator
  </text>

  <!-- Tagline -->
  <text x="65" y="50" font-family="Arial, sans-serif" font-size="10" fill="#666" opacity="0.8">
    Social Media Generator
  </text>
</svg>
